<mxfile host="app.diagrams.net" modified="2024-06-16T09:40:29.266Z" agent="Mozilla/5.0 (Windows NT 10.0; Win64; x64) AppleWebKit/537.36 (KHTML, like Gecko) Chrome/125.0.0.0 Safari/537.36" etag="QVDNVTt0euSTREE8VnOj" version="24.4.8" type="github">
  <diagram name="Trang-1" id="9g4NJWQaRpeCCxSCEzkC">
    <mxGraphModel dx="1235" dy="614" grid="1" gridSize="10" guides="1" tooltips="1" connect="1" arrows="1" fold="1" page="1" pageScale="1" pageWidth="827" pageHeight="1169" math="0" shadow="0">
      <root>
        <mxCell id="0" />
        <mxCell id="1" parent="0" />
        <mxCell id="WoNUFKYh86xmJahRJ14r-6" style="edgeStyle=orthogonalEdgeStyle;rounded=0;orthogonalLoop=1;jettySize=auto;html=1;exitX=0.5;exitY=0.5;exitDx=0;exitDy=0;exitPerimeter=0;" edge="1" parent="1" source="WoNUFKYh86xmJahRJ14r-1" target="WoNUFKYh86xmJahRJ14r-5">
          <mxGeometry relative="1" as="geometry" />
        </mxCell>
        <mxCell id="WoNUFKYh86xmJahRJ14r-1" value="staff" style="shape=umlActor;verticalLabelPosition=bottom;verticalAlign=top;html=1;outlineConnect=0;" vertex="1" parent="1">
          <mxGeometry x="160" y="100" width="40" height="80" as="geometry" />
        </mxCell>
        <mxCell id="WoNUFKYh86xmJahRJ14r-2" value="security" style="shape=umlActor;verticalLabelPosition=bottom;verticalAlign=top;html=1;outlineConnect=0;" vertex="1" parent="1">
          <mxGeometry x="280" width="40" height="80" as="geometry" />
        </mxCell>
        <mxCell id="WoNUFKYh86xmJahRJ14r-11" style="edgeStyle=orthogonalEdgeStyle;rounded=0;orthogonalLoop=1;jettySize=auto;html=1;exitX=1;exitY=0;exitDx=0;exitDy=0;entryX=0;entryY=0.5;entryDx=0;entryDy=0;" edge="1" parent="1" source="WoNUFKYh86xmJahRJ14r-5" target="WoNUFKYh86xmJahRJ14r-7">
          <mxGeometry relative="1" as="geometry" />
        </mxCell>
        <mxCell id="WoNUFKYh86xmJahRJ14r-5" value="swipe" style="rounded=1;whiteSpace=wrap;html=1;" vertex="1" parent="1">
          <mxGeometry x="240" y="120" width="120" height="40" as="geometry" />
        </mxCell>
        <mxCell id="WoNUFKYh86xmJahRJ14r-12" style="edgeStyle=orthogonalEdgeStyle;rounded=0;orthogonalLoop=1;jettySize=auto;html=1;exitX=1;exitY=0.5;exitDx=0;exitDy=0;entryX=0;entryY=0;entryDx=0;entryDy=0;" edge="1" parent="1" source="WoNUFKYh86xmJahRJ14r-7" target="WoNUFKYh86xmJahRJ14r-9">
          <mxGeometry relative="1" as="geometry" />
        </mxCell>
        <mxCell id="WoNUFKYh86xmJahRJ14r-7" value="CAMERA" style="ellipse;whiteSpace=wrap;html=1;aspect=fixed;" vertex="1" parent="1">
          <mxGeometry x="400" y="60" width="60" height="60" as="geometry" />
        </mxCell>
        <mxCell id="WoNUFKYh86xmJahRJ14r-25" style="edgeStyle=orthogonalEdgeStyle;rounded=0;orthogonalLoop=1;jettySize=auto;html=1;exitX=1;exitY=0.5;exitDx=0;exitDy=0;entryX=0.5;entryY=1;entryDx=0;entryDy=0;" edge="1" parent="1" source="WoNUFKYh86xmJahRJ14r-9" target="WoNUFKYh86xmJahRJ14r-15">
          <mxGeometry relative="1" as="geometry" />
        </mxCell>
        <mxCell id="WoNUFKYh86xmJahRJ14r-9" value="Take pictures and recognize license plates" style="rounded=1;whiteSpace=wrap;html=1;" vertex="1" parent="1">
          <mxGeometry x="500" y="120" width="110" height="40" as="geometry" />
        </mxCell>
        <mxCell id="WoNUFKYh86xmJahRJ14r-14" value="PARK" style="text;html=1;align=center;verticalAlign=middle;whiteSpace=wrap;rounded=0;" vertex="1" parent="1">
          <mxGeometry x="700" y="220" width="80" height="40" as="geometry" />
        </mxCell>
        <mxCell id="WoNUFKYh86xmJahRJ14r-15" value="false" style="rhombus;whiteSpace=wrap;html=1;" vertex="1" parent="1">
          <mxGeometry x="720" y="80" width="40" height="40" as="geometry" />
        </mxCell>
        <mxCell id="WoNUFKYh86xmJahRJ14r-26" style="edgeStyle=orthogonalEdgeStyle;rounded=0;orthogonalLoop=1;jettySize=auto;html=1;exitX=0.5;exitY=1;exitDx=0;exitDy=0;" edge="1" parent="1" source="WoNUFKYh86xmJahRJ14r-16" target="WoNUFKYh86xmJahRJ14r-14">
          <mxGeometry relative="1" as="geometry" />
        </mxCell>
        <mxCell id="WoNUFKYh86xmJahRJ14r-16" value="true" style="rhombus;whiteSpace=wrap;html=1;" vertex="1" parent="1">
          <mxGeometry x="720" y="160" width="40" height="40" as="geometry" />
        </mxCell>
        <mxCell id="WoNUFKYh86xmJahRJ14r-21" value="" style="endArrow=classic;html=1;rounded=0;exitX=0.5;exitY=0;exitDx=0;exitDy=0;entryX=0.5;entryY=0.5;entryDx=0;entryDy=0;entryPerimeter=0;" edge="1" parent="1" source="WoNUFKYh86xmJahRJ14r-15" target="WoNUFKYh86xmJahRJ14r-2">
          <mxGeometry relative="1" as="geometry">
            <mxPoint x="350" y="150" as="sourcePoint" />
            <mxPoint x="450" y="150" as="targetPoint" />
            <Array as="points">
              <mxPoint x="740" y="40" />
            </Array>
          </mxGeometry>
        </mxCell>
        <mxCell id="WoNUFKYh86xmJahRJ14r-22" value="ID registration" style="edgeLabel;resizable=0;html=1;;align=center;verticalAlign=middle;" connectable="0" vertex="1" parent="WoNUFKYh86xmJahRJ14r-21">
          <mxGeometry relative="1" as="geometry" />
        </mxCell>
        <mxCell id="WoNUFKYh86xmJahRJ14r-23" value="" style="endArrow=classic;html=1;rounded=0;entryX=0.5;entryY=0;entryDx=0;entryDy=0;" edge="1" parent="1" target="WoNUFKYh86xmJahRJ14r-16">
          <mxGeometry relative="1" as="geometry">
            <mxPoint x="610" y="140" as="sourcePoint" />
            <mxPoint x="690" y="150" as="targetPoint" />
            <Array as="points">
              <mxPoint x="740" y="140" />
            </Array>
          </mxGeometry>
        </mxCell>
        <mxCell id="WoNUFKYh86xmJahRJ14r-24" value="Compare available data" style="edgeLabel;resizable=0;html=1;;align=center;verticalAlign=middle;" connectable="0" vertex="1" parent="WoNUFKYh86xmJahRJ14r-23">
          <mxGeometry relative="1" as="geometry" />
        </mxCell>
        <mxCell id="WoNUFKYh86xmJahRJ14r-28" value="OUT" style="html=1;shadow=0;dashed=0;align=center;verticalAlign=middle;shape=mxgraph.arrows2.arrow;dy=0.6;dx=40;notch=0;direction=west;" vertex="1" parent="1">
          <mxGeometry x="680" y="260" width="80" height="40" as="geometry" />
        </mxCell>
        <mxCell id="WoNUFKYh86xmJahRJ14r-29" value="IN" style="html=1;shadow=0;dashed=0;align=center;verticalAlign=middle;shape=mxgraph.arrows2.arrow;dy=0.6;dx=40;notch=0;" vertex="1" parent="1">
          <mxGeometry x="160" y="200" width="80" height="40" as="geometry" />
        </mxCell>
        <mxCell id="WoNUFKYh86xmJahRJ14r-34" style="edgeStyle=orthogonalEdgeStyle;rounded=0;orthogonalLoop=1;jettySize=auto;html=1;exitX=0;exitY=1;exitDx=0;exitDy=0;entryX=1;entryY=0.5;entryDx=0;entryDy=0;" edge="1" parent="1" source="WoNUFKYh86xmJahRJ14r-30" target="WoNUFKYh86xmJahRJ14r-33">
          <mxGeometry relative="1" as="geometry" />
        </mxCell>
        <mxCell id="WoNUFKYh86xmJahRJ14r-30" value="swipe" style="rounded=1;whiteSpace=wrap;html=1;" vertex="1" parent="1">
          <mxGeometry x="560" y="340" width="120" height="40" as="geometry" />
        </mxCell>
        <mxCell id="WoNUFKYh86xmJahRJ14r-32" style="edgeStyle=orthogonalEdgeStyle;rounded=0;orthogonalLoop=1;jettySize=auto;html=1;exitX=0.5;exitY=0.5;exitDx=0;exitDy=0;exitPerimeter=0;entryX=1;entryY=0.5;entryDx=0;entryDy=0;" edge="1" parent="1" source="WoNUFKYh86xmJahRJ14r-31" target="WoNUFKYh86xmJahRJ14r-30">
          <mxGeometry relative="1" as="geometry" />
        </mxCell>
        <mxCell id="WoNUFKYh86xmJahRJ14r-31" value="staff" style="shape=umlActor;verticalLabelPosition=bottom;verticalAlign=top;html=1;outlineConnect=0;" vertex="1" parent="1">
          <mxGeometry x="720" y="320" width="40" height="80" as="geometry" />
        </mxCell>
        <mxCell id="WoNUFKYh86xmJahRJ14r-36" style="edgeStyle=orthogonalEdgeStyle;rounded=0;orthogonalLoop=1;jettySize=auto;html=1;exitX=0;exitY=0.5;exitDx=0;exitDy=0;entryX=1;entryY=1;entryDx=0;entryDy=0;" edge="1" parent="1" source="WoNUFKYh86xmJahRJ14r-33" target="WoNUFKYh86xmJahRJ14r-35">
          <mxGeometry relative="1" as="geometry" />
        </mxCell>
        <mxCell id="WoNUFKYh86xmJahRJ14r-33" value="CAMERA" style="ellipse;whiteSpace=wrap;html=1;aspect=fixed;" vertex="1" parent="1">
          <mxGeometry x="460" y="380" width="60" height="60" as="geometry" />
        </mxCell>
        <mxCell id="WoNUFKYh86xmJahRJ14r-41" style="edgeStyle=orthogonalEdgeStyle;rounded=0;orthogonalLoop=1;jettySize=auto;html=1;exitX=0;exitY=0.5;exitDx=0;exitDy=0;entryX=0.5;entryY=0;entryDx=0;entryDy=0;" edge="1" parent="1" source="WoNUFKYh86xmJahRJ14r-35" target="WoNUFKYh86xmJahRJ14r-40">
          <mxGeometry relative="1" as="geometry" />
        </mxCell>
        <mxCell id="WoNUFKYh86xmJahRJ14r-35" value="Take pictures and recognize license plates" style="rounded=1;whiteSpace=wrap;html=1;" vertex="1" parent="1">
          <mxGeometry x="310" y="340" width="110" height="40" as="geometry" />
        </mxCell>
        <mxCell id="WoNUFKYh86xmJahRJ14r-37" value="" style="endArrow=classic;html=1;rounded=0;entryX=0.5;entryY=1;entryDx=0;entryDy=0;exitX=0;exitY=0.5;exitDx=0;exitDy=0;" edge="1" parent="1" source="WoNUFKYh86xmJahRJ14r-35" target="WoNUFKYh86xmJahRJ14r-39">
          <mxGeometry relative="1" as="geometry">
            <mxPoint x="210" y="400" as="sourcePoint" />
            <mxPoint x="340" y="420" as="targetPoint" />
            <Array as="points">
              <mxPoint x="260" y="360" />
              <mxPoint x="180" y="360" />
            </Array>
          </mxGeometry>
        </mxCell>
        <mxCell id="WoNUFKYh86xmJahRJ14r-38" value="Compare available data" style="edgeLabel;resizable=0;html=1;;align=center;verticalAlign=middle;" connectable="0" vertex="1" parent="WoNUFKYh86xmJahRJ14r-37">
          <mxGeometry relative="1" as="geometry" />
        </mxCell>
        <mxCell id="WoNUFKYh86xmJahRJ14r-39" value="true" style="rhombus;whiteSpace=wrap;html=1;" vertex="1" parent="1">
          <mxGeometry x="160" y="280" width="40" height="40" as="geometry" />
        </mxCell>
        <mxCell id="WoNUFKYh86xmJahRJ14r-50" style="edgeStyle=orthogonalEdgeStyle;rounded=0;orthogonalLoop=1;jettySize=auto;html=1;exitX=0.5;exitY=1;exitDx=0;exitDy=0;entryX=1;entryY=0.5;entryDx=0;entryDy=0;" edge="1" parent="1" source="WoNUFKYh86xmJahRJ14r-40" target="WoNUFKYh86xmJahRJ14r-14">
          <mxGeometry relative="1" as="geometry" />
        </mxCell>
        <mxCell id="WoNUFKYh86xmJahRJ14r-40" value="false" style="rhombus;whiteSpace=wrap;html=1;" vertex="1" parent="1">
          <mxGeometry x="160" y="400" width="40" height="40" as="geometry" />
        </mxCell>
        <mxCell id="WoNUFKYh86xmJahRJ14r-42" value="IN" style="html=1;shadow=0;dashed=0;align=center;verticalAlign=middle;shape=mxgraph.arrows2.arrow;dy=0.6;dx=40;notch=0;direction=west;" vertex="1" parent="1">
          <mxGeometry x="60" y="280" width="80" height="40" as="geometry" />
        </mxCell>
        <mxCell id="WoNUFKYh86xmJahRJ14r-47" style="edgeStyle=orthogonalEdgeStyle;rounded=0;orthogonalLoop=1;jettySize=auto;html=1;exitX=0;exitY=0.5;exitDx=0;exitDy=0;entryX=0;entryY=0.5;entryDx=0;entryDy=0;entryPerimeter=0;" edge="1" parent="1" source="WoNUFKYh86xmJahRJ14r-39" target="WoNUFKYh86xmJahRJ14r-42">
          <mxGeometry relative="1" as="geometry" />
        </mxCell>
      </root>
    </mxGraphModel>
  </diagram>
</mxfile>
